<?xml version="1.0" standalone="no"?>
<!DOCTYPE svg PUBLIC "-//W3C//DTD SVG 20010904//EN"
 "http://www.w3.org/TR/2001/REC-SVG-20010904/DTD/svg10.dtd">
<svg version="1.0" xmlns="http://www.w3.org/2000/svg"
 width="500.000000pt" height="500.000000pt" viewBox="0 0 500.000000 500.000000"
 preserveAspectRatio="xMidYMid meet">
<metadata>
Created by potrace 1.14, written by Peter Selinger 2001-2017
</metadata>
<g transform="translate(0.000000,500.000000) scale(0.100000,-0.100000)"
fill="#000000" stroke="none">
<path d="M457 4202 c-11 -12 -68 -263 -167 -726 -142 -667 -149 -710 -134
-728 10 -10 27 -18 39 -18 14 0 25 -8 28 -20 5 -19 14 -20 120 -20 92 0 119 3
131 16 9 8 16 17 16 19 0 4 56 273 65 313 5 21 9 22 136 22 145 0 178 10 204
60 16 31 205 909 205 953 0 13 -9 34 -20 47 -11 13 -20 31 -20 41 0 10 -12 27
-26 38 -26 20 -39 21 -294 21 -244 0 -268 -2 -283 -18z m537 -23 c14 -7 27
-18 30 -25 4 -12 -38 -14 -245 -14 -249 0 -249 0 -259 -22 -6 -13 -68 -297
-140 -633 -71 -335 -134 -634 -140 -662 -10 -46 -15 -53 -36 -53 -13 0 -24 4
-24 9 0 5 49 241 109 523 60 282 126 592 146 688 21 96 42 181 47 188 14 16
475 17 512 1z m-169 -289 c-3 -19 -34 -165 -68 -324 l-62 -290 -42 -2 c-39 -1
-43 1 -43 22 0 16 7 24 22 26 20 3 26 25 83 294 34 160 65 296 69 302 3 6 16
10 27 9 17 -1 19 -6 14 -37z"/>
<path d="M1293 4200 c-47 -29 -64 -61 -89 -173 -97 -445 -244 -1164 -244
-1200 0 -45 13 -64 63 -93 76 -45 80 -45 321 -42 263 3 273 6 306 81 10 23 77
325 150 671 136 647 134 631 101 686 -5 8 -14 27 -21 41 -21 45 -44 49 -308
49 -227 0 -250 -2 -279 -20z m526 -23 c14 -6 26 -18 29 -24 3 -10 -47 -13
-228 -13 -265 0 -280 -3 -310 -73 -15 -35 -245 -1093 -266 -1223 -9 -60 -21
-74 -40 -49 -11 14 -14 32 -9 60 7 46 216 1044 247 1177 22 98 44 133 91 147
50 15 457 13 486 -2z m-195 -255 c2 -4 -43 -233 -102 -507 l-107 -500 -42 -3
c-38 -3 -43 -1 -43 18 0 12 9 24 23 29 20 8 30 46 121 477 55 258 104 475 109
482 11 14 33 16 41 4z"/>
<path d="M2118 4203 c-50 -31 -65 -79 -147 -464 -155 -729 -192 -912 -185
-933 7 -25 43 -66 58 -66 5 0 20 -10 34 -22 23 -22 31 -23 255 -26 269 -4 299
2 334 66 21 36 283 1248 283 1306 0 29 -34 100 -63 134 -20 22 -23 22 -281 22
-225 0 -265 -3 -288 -17z m531 -26 c14 -6 26 -18 29 -24 3 -10 -49 -13 -236
-13 -228 0 -241 -1 -266 -21 -14 -11 -33 -33 -41 -49 -12 -23 -251 -1125 -271
-1248 -4 -23 -10 -42 -13 -42 -15 0 -31 26 -31 51 0 24 232 1140 260 1249 26
102 46 109 325 109 155 1 227 -3 244 -12z m-199 -266 c0 -11 -180 -870 -205
-978 -5 -20 -12 -23 -51 -23 -38 0 -45 3 -40 16 3 9 6 20 6 25 0 5 9 9 20 9
12 0 22 9 25 23 3 12 48 225 100 472 53 248 98 455 100 462 6 17 45 12 45 -6z"/>
<path d="M2906 4198 c-23 -36 -380 -1739 -369 -1758 6 -8 24 -17 42 -20 17 -3
32 -8 31 -12 0 -5 0 -12 0 -18 0 -6 111 -10 314 -10 254 0 317 3 328 14 8 7
23 57 33 111 18 91 18 97 2 106 -9 6 -17 21 -17 34 0 49 -19 55 -184 55 l-152
0 148 698 c81 383 148 707 148 720 0 13 -6 22 -15 22 -10 0 -15 10 -15 28 0
47 -13 52 -152 52 -121 0 -128 -1 -142 -22z m256 -14 c3 -3 4 -14 1 -25 -5
-17 -15 -19 -94 -19 -74 0 -90 -3 -97 -17 -6 -10 -88 -388 -183 -840 -168
-795 -175 -823 -196 -823 -13 0 -23 6 -23 13 0 24 350 1672 360 1695 9 21 15
22 118 22 60 0 111 -3 114 -6z m71 -1530 c3 -3 3 -12 0 -20 -4 -11 -36 -14
-159 -14 -147 0 -154 1 -154 20 0 19 7 20 153 20 85 0 156 -3 160 -6z"/>
<path d="M3468 2490 c-20 -12 -62 -182 -53 -217 4 -16 15 -25 35 -30 80 -16 7
-23 -230 -23 -258 0 -260 0 -273 -22 -17 -27 -309 -1401 -305 -1431 2 -14 14
-25 33 -32 17 -5 36 -18 43 -27 11 -15 30 -18 127 -18 106 0 115 1 129 22 9
12 16 30 16 40 0 17 2 16 20 -2 11 -11 29 -20 40 -20 11 0 20 -6 20 -14 0 -21
23 -26 134 -26 67 0 108 4 120 13 17 13 30 65 117 486 25 120 28 149 18 173
-6 15 -15 28 -20 28 -20 0 -7 38 16 48 45 21 58 62 139 459 36 172 36 183 8
233 -18 31 -32 60 -32 65 0 3 45 5 100 5 99 0 100 0 95 -22 -42 -176 -295
-1397 -293 -1412 2 -14 14 -24 36 -31 17 -5 32 -14 32 -21 0 -19 26 -24 134
-24 66 0 108 4 118 13 12 8 61 224 174 755 l158 742 57 0 58 0 -9 -27 c-19
-59 -202 -950 -203 -986 0 -40 22 -72 55 -83 11 -3 29 -15 39 -25 10 -10 26
-19 34 -19 11 0 14 -7 10 -22 -16 -70 -55 -261 -55 -268 0 -17 32 -40 55 -40
14 0 25 -7 28 -20 5 -19 14 -20 120 -20 85 0 119 4 129 14 8 8 27 74 42 147
15 74 32 151 37 172 l10 37 55 0 c63 0 103 19 127 59 19 32 221 986 213 1007
-3 8 -12 14 -21 14 -11 0 -14 6 -9 25 12 48 -6 55 -147 55 -140 0 -155 -5
-166 -60 -4 -24 -8 -27 -27 -21 -14 6 -20 15 -18 31 2 12 -4 30 -13 40 -15 17
-15 24 1 105 16 82 16 89 1 100 -10 7 -17 23 -17 37 0 13 -5 29 -12 36 -15 15
-1004 17 -1030 2z m1002 -45 l0 -25 -462 0 c-255 0 -469 -4 -475 -8 -7 -4 -19
-35 -26 -67 -11 -49 -18 -61 -35 -63 -17 -3 -22 2 -22 20 0 40 30 152 43 160
7 4 229 8 495 8 l482 0 0 -25z m-620 -259 c0 -13 -286 -1367 -296 -1398 -3
-11 -15 -18 -31 -18 -16 0 -23 5 -21 13 3 6 72 328 154 714 144 678 150 703
172 703 12 0 22 -6 22 -14z m-322 -12 c12 -8 22 -19 22 -25 0 -5 -106 -9 -265
-9 l-264 0 -15 -52 c-8 -29 -74 -336 -148 -683 l-133 -630 -28 -3 c-24 -3 -28
0 -23 15 3 10 71 325 150 701 80 375 148 687 151 692 4 6 107 10 268 10 221 0
266 -2 285 -16z m970 -6 c-3 -22 -8 -23 -90 -26 -71 -2 -89 -6 -97 -20 -5 -9
-55 -233 -111 -497 -55 -264 -104 -482 -106 -485 -8 -7 -34 31 -34 50 0 10 38
199 86 421 47 222 92 438 101 479 8 41 20 81 25 88 7 8 44 12 120 12 108 0
109 0 106 -22z m362 -8 c0 -19 -7 -20 -89 -20 -60 0 -93 -4 -98 -12 -4 -7 -49
-202 -98 -433 l-90 -420 -40 0 c-33 0 -41 4 -43 22 -2 16 3 22 19 25 21 3 28
26 109 414 48 227 90 419 93 428 5 13 25 16 122 16 108 0 115 -1 115 -20z
m-1535 -242 c1 -2 -17 -88 -39 -193 l-41 -190 -43 -3 c-37 -3 -42 -1 -42 17 0
14 6 21 19 21 21 0 19 -8 61 190 17 80 32 150 35 157 3 10 43 11 50 1z m65
-508 c0 -5 -2 -10 -4 -10 -3 0 -8 5 -11 10 -3 6 -1 10 4 10 6 0 11 -4 11 -10z
m-201 -122 c0 -13 -24 -133 -53 -268 l-52 -245 -28 -3 c-23 -3 -27 0 -22 15 2
10 28 132 57 271 51 242 54 252 76 252 17 0 23 -5 22 -22z m1063 -234 c3 -3 2
-20 -2 -37 -5 -18 -18 -80 -31 -139 -20 -101 -23 -108 -45 -108 -13 0 -24 6
-24 13 0 14 48 245 55 265 4 12 37 17 47 6z"/>
<path d="M1327 2202 c-11 -12 -68 -263 -167 -726 -142 -667 -149 -710 -134
-728 10 -10 27 -18 39 -18 14 0 25 -8 28 -20 5 -19 14 -20 120 -20 93 0 117 3
128 16 8 9 30 91 50 183 l35 166 141 5 c132 5 143 7 167 29 14 13 32 42 40 65
8 23 56 239 107 481 l92 439 -21 38 c-12 20 -22 44 -22 52 0 8 -12 24 -26 35
-26 20 -39 21 -294 21 -244 0 -268 -2 -283 -18z m537 -23 c14 -7 27 -18 30
-25 4 -12 -37 -14 -243 -14 -187 0 -251 -3 -259 -12 -8 -11 -292 -1323 -292
-1350 0 -5 -11 -8 -25 -8 -14 0 -25 3 -25 8 0 26 294 1389 302 1400 14 16 475
17 512 1z m-170 -257 c4 -6 -114 -582 -129 -633 -4 -11 -17 -16 -45 -16 -35 0
-40 3 -40 23 0 16 7 24 22 26 20 3 26 25 83 294 34 160 65 296 69 303 8 13 32
15 40 3z"/>
<path d="M2159 2197 c-19 -12 -42 -38 -52 -57 -23 -44 -300 -1356 -292 -1381
4 -11 18 -22 33 -26 15 -3 33 -15 40 -25 11 -16 28 -18 127 -18 106 0 115 1
129 22 9 12 16 34 17 48 0 25 0 25 9 2 6 -14 21 -25 40 -28 16 -4 30 -12 30
-19 0 -20 25 -25 134 -25 68 0 108 4 120 13 13 10 50 164 157 662 77 358 140
668 142 691 1 25 -4 48 -13 59 -8 10 -19 32 -25 49 -17 52 -36 56 -311 56
-245 0 -252 -1 -285 -23z m536 -19 c14 -6 25 -17 25 -24 0 -10 -53 -14 -244
-16 -243 -3 -245 -3 -270 -27 -15 -14 -31 -42 -37 -62 -7 -21 -71 -316 -143
-656 -124 -587 -132 -618 -153 -621 -15 -2 -23 2 -23 11 0 21 268 1285 280
1323 13 38 38 62 76 74 45 13 458 12 489 -2z m-202 -268 c-3 -22 -93 -452 -99
-472 -4 -13 -16 -18 -45 -18 -33 0 -39 3 -39 21 0 12 8 23 20 26 24 6 20 -4
70 228 22 105 42 200 45 211 6 25 51 28 48 4z m-153 -717 c-1 -10 -20 -108
-44 -218 -42 -197 -43 -200 -69 -203 -19 -2 -26 1 -23 10 3 7 24 103 47 213
22 110 43 203 46 208 9 15 43 7 43 -10z"/>
</g>
</svg>
